<svg xmlns="http://www.w3.org/2000/svg" fill="none" viewBox="0 0 1024 1024" height="1024" width="1024">
    <rect fill="white" height="1024" width="1024"></rect>
    <path fill="#FDFDFD" d="M543.065 438.308C551.102 438.507 559.139 438.467 567.176 439.024C580.305 442.446 594.032 445.748 604.576 454.859C622.241 469.819 642.97 480.283 661.67 493.771C671.299 501.013 680.848 508.413 690.834 515.137C694.216 517.763 697.598 520.469 700.98 523.174C701.736 544.779 701.577 568.73 687.094 586.316C670.105 606.608 643.249 613.69 618.382 618.624C617.825 605.295 621.485 588.982 608.833 579.95C596.379 587.987 583.409 596.263 568.489 598.531C549.948 601.674 531.049 600.242 512.349 600.52C474.989 600.123 435.122 603.743 401.263 584.645C392.032 590.613 392.868 604.3 390.998 614.207C369.712 610.149 347.67 606.528 328.81 595.189C317.869 588.425 307.763 580.348 296.901 573.425C298.93 581.582 301.039 589.738 303.187 597.855C269.965 575.454 241.278 543.704 228.666 505.19C222.738 487.047 229.263 468.705 238.215 452.91C240.244 459.395 242.233 465.88 243.944 472.445C242.631 488.48 241.477 506.981 253.931 519.315C269.647 536.781 296.145 529.142 314.964 521.543C331.436 513.307 345.64 501.49 359.884 490.071C376.475 476.583 395.852 467.074 412.204 453.228C424.499 441.809 442.482 446.385 457.482 442.247C458.915 443.679 460.387 445.191 461.819 446.663C447.615 470.416 479.007 483.148 495.32 492.259C495.956 494.05 497.269 497.67 497.906 499.501C491.301 509.885 482.707 519.553 471.089 524.328C453.424 532.405 431.621 527.869 417.257 515.256C409.26 508.851 409.419 497.67 406.356 488.798C404.366 495.92 400.945 504.116 405.639 511.039C417.496 530.734 443.159 539.009 465.042 534.832C480.758 531.848 492.535 520.15 503.436 509.288C512.627 519.474 523.131 529.421 536.579 533.399C557.945 540.044 584.085 535.11 598.687 517.286C607.082 507.737 610.902 493.055 604.297 481.557C603.263 497.511 597.692 514.54 582.136 521.861C556.672 537.299 522.495 525.243 508.688 499.819C509.046 497.909 509.763 494.09 510.121 492.18C523.211 486.172 539.086 482.71 547.202 469.66C553.29 461.981 551.619 451.796 550.107 442.883C548.356 441.769 544.815 439.462 543.065 438.308Z"></path>
    <path fill="#FDFDFD" d="M487.442 654.114C506.102 652.284 524.723 656.143 542.707 660.758C555.399 674.405 572.905 683.676 581.778 700.665C603.422 737.07 598.17 784.059 579.43 820.504C570.279 839.443 550.982 850.822 531.208 855.875C504.153 862.639 473.158 864.946 448.331 849.907C439.777 845.132 431.183 840.477 422.668 835.663C417.496 828.103 415.706 817.599 406.833 813.143C408.305 822.533 410.852 831.724 412.801 841.034C412.96 844.058 413.279 850.106 413.438 853.129C410.295 865.543 399.91 871.511 387.735 872.068C379.778 875.649 382.284 889.415 379.619 896.657C370.229 896.577 360.839 896.657 351.489 896.736C350.733 888.063 351.688 878.912 348.147 870.755C338.956 874.535 341.741 888.739 339.593 896.696C335.415 896.498 327.06 896.06 322.882 895.861C323.558 884.323 324.394 872.745 324.155 861.167C317.033 871.471 316.397 884.362 315.084 896.378C308.917 895.463 299.567 898.208 297.14 890.331C290.893 871.869 300.283 850.145 316.675 840.278C330.521 832.44 346.834 831.923 362.152 829.377C352.961 823.607 342.497 820.663 332.153 817.838C322.962 778.17 304.461 741.367 296.304 701.421C296.821 700.784 297.896 699.551 298.413 698.954C307.087 731.42 318.466 763.131 331.038 794.284C335.455 804.43 337.206 818.833 350.017 821.658C368.12 831.048 393.863 818.594 394.181 797.308C395.653 760.863 384.711 720.399 406.555 687.853C431.342 672.376 457.602 656.581 487.442 654.114Z"></path>
    <path fill="#262033" d="M604.297 481.557C610.902 493.055 607.082 507.737 598.687 517.286C584.085 535.11 557.945 540.044 536.579 533.399C523.131 529.421 512.627 519.474 503.436 509.288C492.535 520.15 480.758 531.848 465.042 534.832C443.159 539.009 417.496 530.734 405.639 511.039C400.945 504.116 404.366 495.92 406.356 488.798C409.419 497.671 409.26 508.851 417.257 515.256C431.62 527.869 453.424 532.405 471.089 524.328C482.707 519.553 491.301 509.885 497.906 499.501C499.617 496.994 501.367 494.488 503.078 492.021C504.511 493.97 507.296 497.869 508.688 499.819C522.495 525.243 556.672 537.299 582.136 521.861C597.692 514.54 603.263 497.511 604.297 481.557Z"></path>
    <path fill="#282235" d="M349.818 147.225C400.427 122.636 457.045 114.281 512.747 112.212C566.022 110.421 620.172 119.891 667.917 144.121C715.184 133.219 765.793 136.124 811.469 152.556C842.941 164.134 873.537 184.585 887.303 216.255C899.638 245.738 905.407 278.761 900.155 310.471C894.465 329.37 883.961 352.129 862.954 356.943C825.116 354.993 792.689 330.882 767.982 303.787C767.305 355.829 777.053 407.871 798.896 455.217C809.161 474.912 808.445 498.904 799.692 518.996C788.432 545.495 770.687 568.611 752.504 590.653C765.714 630.082 774.387 670.983 779.639 712.203C783.141 747.335 785.448 784.099 772.796 817.759C766.907 833.514 757.04 847.281 747.77 861.166C749.719 873.5 750.953 886.272 747.252 898.367C732.173 914.243 707.784 911.258 687.89 911.02C665.331 908.155 642.254 914.402 620.053 908.553C608.395 904.853 602.109 894.389 598.687 883.368C544.736 900.039 485.492 899.243 432.376 879.827C430.148 888.58 427.841 897.572 422.111 904.813C405.082 915.595 384.234 910.98 365.295 911.219C338.717 911.338 310.19 915.555 285.761 902.426C280.548 884.919 281.304 866.339 289.302 849.787C282.021 845.132 275.217 839.522 271.835 831.326C270.96 828.74 269.249 823.567 268.374 820.981C239.408 822.533 208.653 814.098 188.322 792.533C171.969 776.022 162.858 752.985 161.426 729.988C160.471 717.694 167.075 703.211 180.484 701.341C193.454 700.068 202.804 711.009 211.358 719.046C220.032 728.078 232.605 730.266 244.342 732.455C244.422 729.351 244.581 723.184 244.66 720.121C246.888 674.922 249.315 629.127 261.57 585.322C238.891 558.067 212.592 528.625 211.12 491.304C209.369 469.7 225.204 452.989 230.297 433.136C240.562 390.484 241.318 346.399 249.315 303.389C232.764 323.164 215.576 344.728 190.271 353.481C174.635 358.495 156.93 363.707 141.054 356.863C129.715 351.651 125.537 338.959 123.906 327.54C119.331 306.652 123.986 285.366 127.487 264.716C132.341 243.032 137.752 220.115 152.991 203.086C173.401 180.089 202.406 167.118 231.093 157.728C269.249 146.071 310.23 138.392 349.818 147.225ZM423.623 136.402C373.651 146.946 327.577 174.2 294.514 213.072C274.342 237.621 268.851 269.968 264.594 300.564C256.795 351.413 258.347 404.727 238.215 452.91C229.263 468.705 222.738 487.047 228.666 505.19C241.278 543.704 269.965 575.454 303.187 597.855L303.386 598.611C330.203 615.082 360.68 624.631 391.555 629.923C391.435 625.984 391.117 618.146 390.998 614.207C392.868 604.3 392.032 590.613 401.263 584.645C435.122 603.743 474.989 600.122 512.349 600.52C531.049 600.242 549.948 601.674 568.489 598.531C583.409 596.263 596.379 587.987 608.833 579.95C621.485 588.982 617.825 605.295 618.382 618.624C617.705 625.825 617.109 633.026 616.472 640.228C691.948 627.735 760.899 576.011 788.233 503.718C794.201 485.933 788.353 464.408 774.109 452.154C758.552 412.566 748.764 370.59 746.457 327.938C745.741 301.002 737.266 275.14 730.82 249.199C721.271 214.107 694.574 187.688 667.996 164.532C660.596 158.763 653.394 152.039 644.363 149.055C575.093 119.732 496.195 120.885 423.623 136.402ZM168.587 207.383C143.8 229.823 141.691 265.273 137.593 296.228C136.598 312.342 135.604 330.604 145.471 344.41C146.784 346.081 149.45 349.463 150.763 351.134C162.221 347.155 174.476 344.768 184.86 338.243C208.255 321.134 230.257 301.32 245.973 276.692C252.896 265.432 256.756 252.7 262.167 240.685C271.795 217.847 285.96 196.362 305.296 180.566C311.98 174.519 323.439 173.564 326.662 164.214L326.423 160.712C329.168 163.418 332.829 162.821 336.29 162.543C327.458 153.352 313.691 156.694 302.471 157.49C255.045 162.98 205.311 175.115 168.587 207.383ZM687.094 155.898C689.322 157.888 691.829 159.081 694.694 159.519C698.752 166.72 703.964 173.166 709.852 178.935C730.741 199.823 740.767 228.311 753.698 254.212C761.775 273.708 776.615 289.146 790.621 304.503C810.395 321.294 831.641 340.232 858.657 342.659C875.526 341.346 882.927 323.323 888.935 309.875C892.197 300.485 898.404 286.838 888.975 279.079C885.394 244.106 874.492 205.553 842.981 185.579C797.504 156.455 740.051 145.951 687.094 155.898ZM272.79 590.892C264.435 615.122 262.803 640.944 260.655 666.328C259.819 688.45 257.034 710.811 260.177 732.813C269.846 739.537 255.124 740.333 250.231 741.844C223.772 746.46 202.605 728.755 184.661 712.203L185.298 711.009C180.126 713.039 173.163 715.585 173.362 722.309C173.72 754.974 192.539 789.43 224.369 800.809C245.416 812.586 271.198 807.493 293.599 802.958C301.238 800.61 314.169 797.109 310.468 786.486C301.516 754.855 287.074 722.389 292.723 688.888C293.28 692.389 294.474 699.352 295.071 702.813L296.304 701.421C304.461 741.367 322.962 778.17 332.152 817.838C342.497 820.663 352.961 823.607 362.152 829.376C346.834 831.923 330.521 832.44 316.675 840.278C300.283 850.145 290.893 871.869 297.14 890.33C299.567 898.208 308.917 895.463 315.084 896.378C316.397 884.362 317.033 871.471 324.155 861.166C324.394 872.744 323.558 884.323 322.882 895.861C327.06 896.06 335.415 896.497 339.593 896.696C341.741 888.739 338.956 874.535 348.147 870.755C351.688 878.911 350.733 888.063 351.489 896.736C360.839 896.657 370.229 896.577 379.619 896.657C382.284 889.415 379.778 875.649 387.735 872.068C386.9 880.145 386.382 888.261 386.064 896.418C392.112 896.219 398.199 896.06 404.287 895.861C408.942 892.837 415.905 892.001 418.491 886.352C421.435 871.113 417.894 855.437 412.801 841.034C410.852 831.724 408.305 822.533 406.833 813.143C415.706 817.599 417.496 828.103 422.668 835.663C427.443 846.087 425.414 864.548 439.459 867.493C491.46 885.596 549.988 886.073 601.154 864.747C603.939 843.66 605.332 822.334 610.782 801.724C620.212 761.42 624.39 717.972 609.31 678.503C602.666 680.93 595.345 683.477 588.501 680.135C573.223 673.769 559.099 664.458 542.706 660.758C524.723 656.143 506.102 652.283 487.442 654.114C457.602 656.58 431.342 672.376 406.555 687.853C394.937 674.286 393.027 656.103 391.714 639.034C361.476 636.568 331.436 629.923 304.62 615.401V614.923C295.27 608.995 286.238 602.589 276.888 596.741C275.575 594.711 274.222 592.762 272.79 590.892ZM404.565 598.65C401.422 623.358 403.093 648.504 407.748 672.933C426.329 666.209 441.289 651.925 460.705 646.992C507.375 632.231 557.706 646.753 597.294 673.052C609.151 648.822 605.133 620.215 607.361 593.995C604.814 595.706 599.761 599.048 597.215 600.759C567.772 612.894 535.584 608.796 504.63 609.433C471.089 609.194 436.355 611.183 404.565 598.65ZM705.595 624.989C677.665 639.591 647.068 649.817 615.239 649.697C614.761 657.774 613.727 665.851 614.284 673.968C618.262 686.421 625.344 697.561 630.079 709.736C631.193 740.293 630.397 771.287 623.713 801.287C616.512 828.501 612.772 856.909 614.124 885.078C614.403 895.423 627.692 894.23 634.694 896.537C634.376 888.779 633.938 880.98 634.376 873.222C638.872 879.429 637.559 887.585 638.594 894.787C649.058 895.582 659.641 895.901 670.145 894.986C669.946 884.521 669.15 874.097 668.951 863.673C678.858 871.233 678.898 884.323 679.415 895.622C687.452 895.702 695.45 895.741 703.487 895.861C702.611 886.551 701.617 877.201 701.815 867.89C710.33 874.416 708.579 886.67 711.205 895.98C719.481 894.389 729.229 895.025 735.754 888.779C738.539 873.301 731.735 856.869 721.55 845.212C709.494 838.169 697.757 829.456 683.752 826.91C689.362 827.546 694.256 824.204 699.349 822.374C710.29 821.419 718.367 828.859 726.722 834.628C724.812 818.316 720.476 801.804 724.096 785.372C728.831 758.794 733.446 732.136 736.072 705.2C738.539 675.559 734.162 646.116 732.014 616.634C736.231 621.051 739.653 626.183 741.006 632.231C752.027 671.739 749.481 713.516 743.672 753.622C741.523 770.81 735.316 788.037 739.056 805.464C741.205 816.207 742.677 827.148 741.284 838.13C740.409 840.636 738.698 845.649 737.823 848.156C757.637 830.411 760.979 802.003 765.435 777.255C768.897 767.308 767.942 756.446 768.061 746.102C766.39 696.447 756.364 647.27 740.369 600.321C729.428 609.274 716.139 616.395 705.595 624.989ZM280.509 819.748C284.686 826.233 288.824 832.719 293.042 839.164C301.477 831.923 310.468 825.358 320.216 819.987C319.301 815.172 318.386 810.318 317.551 805.504C306.53 813.223 293.758 817.56 280.509 819.748Z"></path>
    <path fill="#F5F1EF" d="M423.623 136.402C496.195 120.885 575.093 119.732 644.363 149.055C622.082 145.991 601.114 137.357 578.873 134.015C550.465 129.639 521.5 129.718 492.893 131.429C445.307 135.209 396.25 144.121 355.587 170.54C336.529 183.033 316.516 195.128 301.516 212.595C290.097 225.924 288.108 244.067 285.203 260.698C276.848 310.79 272.989 361.479 265.986 411.73C263.798 432.857 252.936 451.358 244.7 470.496L243.944 472.445C242.233 465.88 240.244 459.395 238.215 452.91C258.347 404.727 256.795 351.413 264.594 300.564C268.851 269.968 274.342 237.621 294.514 213.072C327.577 174.2 373.65 146.946 423.623 136.402Z"></path>
    <path fill="#F1A055" d="M355.587 170.54C396.25 144.121 445.307 135.209 492.893 131.429C521.5 129.718 550.465 129.639 578.873 134.015C584.045 144.121 593.435 150.248 603.859 153.829C640.662 167.993 668.474 198.033 689.919 230.141C714.945 274.345 720.277 326.108 723.062 375.921C726.682 403.852 724.176 432.658 732.213 459.952C720.953 472.764 699.826 477.061 696.046 495.562C696.166 502.803 696.564 510.084 696.802 517.365L690.834 515.137C680.848 508.413 671.299 501.012 661.67 493.771C660.556 487.087 659.362 480.403 657.89 473.758C653.355 469.939 648.501 466.238 645.676 460.907C672.572 470.734 703.964 461.345 721.192 438.586C698.831 445.708 675.476 454.064 651.883 447.18C664.973 445.748 678.938 445.629 690.556 438.547C702.054 432.101 710.409 421.478 717.452 410.536C700.264 419.966 684.787 434.846 663.978 434.926C630.755 440.138 595.186 420.125 585.318 387.38C608.594 372.898 632.148 358.773 654.23 342.46C659.8 338.681 663.461 332.951 666.763 327.262C647.307 331.877 631.392 344.37 614.443 354.237C599.204 363.19 583.687 371.744 569.722 382.645C580.305 400.987 589.138 420.722 604.894 435.443C596.459 434.448 588.024 433.454 579.51 433.374C577.759 434.846 574.258 437.751 572.507 439.223C571.154 439.183 568.528 439.064 567.176 439.024C559.138 438.467 551.101 438.507 543.064 438.308C517.64 436.279 489.949 430.868 466.315 443.401C463.928 441.531 461.54 439.661 459.153 437.83C460.426 419.648 473.755 404.29 471.408 385.789C467.509 391.717 465.32 398.481 462.973 405.125C459.273 398.6 455.612 392.075 452.111 385.47C457.363 371.306 447.615 359.609 437.35 351.253C440.055 359.808 442.96 368.282 445.466 376.876C415.905 363.826 391.356 340.67 359.805 331.957C376.993 357.977 409.18 367.327 432.496 386.704C423.981 400.271 415.467 414.873 401.342 423.348C382.245 434.807 358.889 435.483 337.245 434.369C318.784 433.772 306.768 418.255 293.201 407.99C299.686 420.841 308.718 432.976 321.45 440.178C332.55 446.544 345.839 445.549 358.133 446.663C346.078 449.488 333.107 452.83 320.972 448.374C309.434 443.878 298.731 437.472 287.153 433.096C300.402 456.849 328.174 470.416 355.11 466.199C341.065 473.241 324.991 471.928 309.832 474.315C299.089 471.252 288.705 466.716 277.604 465.045C266.384 464.368 255.522 468.148 244.7 470.496C252.936 451.358 263.798 432.857 265.986 411.73C272.989 361.479 276.848 310.79 285.204 260.698C288.108 244.067 290.097 225.924 301.516 212.595C316.516 195.128 336.529 183.033 355.587 170.54ZM561.446 405.125C553.131 400.788 547.322 393.308 540.757 386.863C542.428 401.863 549.351 415.47 554.842 429.316C555.995 430.112 558.303 431.703 559.457 432.499C559.377 423.109 558.701 413.719 557.826 404.409C560.491 405.046 565.783 406.319 568.409 406.955C571.353 390.125 564.112 371.107 574.457 356.187C554.444 363.826 564.351 388.892 561.446 405.125Z"></path>
    <path fill="#DB8859" d="M578.873 134.015C601.114 137.357 622.082 145.991 644.363 149.055C653.395 152.039 660.596 158.763 667.996 164.532C694.574 187.688 721.272 214.107 730.82 249.199C737.266 275.14 745.741 301.002 746.457 327.938C748.764 370.59 758.552 412.565 774.109 452.154C774.547 455.934 775.382 463.493 775.82 467.273C761.894 462.061 747.093 459.236 732.213 459.952C724.176 432.658 726.683 403.852 723.062 375.921C720.277 326.108 714.945 274.345 689.919 230.141C668.474 198.033 640.663 167.993 603.859 153.829C593.435 150.248 584.045 144.121 578.873 134.015Z"></path>
    <path fill="#FDFCFD" d="M168.587 207.383C205.311 175.115 255.045 162.98 302.471 157.49C313.691 156.694 327.458 153.352 336.29 162.543C332.829 162.821 329.169 163.418 326.423 160.713L324.712 158.445C276.49 160.116 225.722 170.739 186.173 199.903C161.664 217.33 150.405 246.892 147.301 275.817C143.521 298.456 143.203 321.612 145.471 344.41C135.604 330.604 136.598 312.342 137.593 296.228C141.691 265.273 143.8 229.823 168.587 207.383Z"></path>
    <path fill="#FDFCFD" d="M173.362 722.309C173.163 715.585 180.126 713.039 185.298 711.01L184.661 712.203C183.468 714.511 181.001 719.126 179.807 721.434C177.738 752.508 193.932 782.627 220.748 798.303L224.369 800.809C192.539 789.43 173.72 754.974 173.362 722.309Z"></path>
    <path fill="#FEFEFD" d="M687.094 155.898C740.051 145.951 797.504 156.455 842.981 185.58C874.492 205.553 885.394 244.107 888.975 279.079C889.174 284.849 889.293 290.658 889.372 296.427C886.627 258.231 872.741 218.046 841.031 194.412C799.095 164.055 745.343 155.898 694.694 159.519C691.829 159.081 689.322 157.888 687.094 155.898Z"></path>
    <path fill="#FEFEFD" d="M484.259 449.528C498.065 449.05 511.911 448.493 525.717 449.408C512.548 454.859 497.707 453.268 484.259 449.528Z"></path>
    <path fill="#392F44" d="M186.173 199.903C225.722 170.739 276.49 160.116 324.712 158.445L326.423 160.712L326.662 164.214C323.439 173.564 311.98 174.519 305.296 180.566C285.96 196.362 271.795 217.847 262.167 240.685C256.756 252.701 252.896 265.432 245.973 276.692C230.257 301.321 208.255 321.135 184.86 338.243C174.476 344.768 162.221 347.155 150.763 351.134C149.45 349.463 146.784 346.081 145.471 344.41C143.203 321.612 143.521 298.456 147.301 275.817C150.404 246.892 161.664 217.33 186.173 199.903Z"></path>
    <path fill="#3C3044" d="M694.693 159.519C745.343 155.898 799.095 164.055 841.031 194.412C872.741 218.046 886.627 258.231 889.372 296.427C889.293 290.658 889.173 284.849 888.974 279.079C898.404 286.838 892.197 300.485 888.935 309.875C882.927 323.323 875.526 341.346 858.657 342.659C831.641 340.232 810.395 321.294 790.62 304.504C776.615 289.146 761.775 273.708 753.698 254.212C740.767 228.311 730.741 199.823 709.852 178.935C703.964 173.166 698.752 166.72 694.693 159.519Z"></path>
    <path fill="#FDF6BC" d="M404.565 598.65C436.355 611.183 471.09 609.194 504.63 609.433C535.585 608.796 567.772 612.894 597.215 600.759L593.197 604.738C566.778 617.311 536.699 610.547 508.569 611.9C474.591 613.093 440.573 611.661 407.311 604.141C406.077 627.058 406.157 650.016 407.748 672.933C403.093 648.504 401.422 623.358 404.565 598.65Z"></path>
    <path fill="#FDF6BC" d="M741.284 838.13C751.39 818.674 756.404 797.189 765.435 777.255C760.979 802.003 757.637 830.411 737.823 848.156C738.698 845.649 740.409 840.636 741.284 838.13Z"></path>
    <path fill="#3B2F44" d="M561.446 405.125C564.351 388.892 554.444 363.826 574.456 356.187C564.112 371.107 571.353 390.126 568.409 406.956C565.783 406.319 560.491 405.046 557.825 404.409C558.701 413.719 559.377 423.109 559.457 432.499C558.303 431.703 555.995 430.112 554.841 429.316C549.351 415.47 542.428 401.863 540.757 386.863C547.322 393.309 553.131 400.789 561.446 405.125Z"></path>
    <path fill="#2B2837" d="M614.443 354.237C631.392 344.37 647.307 331.877 666.763 327.262C663.46 332.951 659.8 338.681 654.23 342.46C632.148 358.773 608.594 372.898 585.318 387.38C595.186 420.125 630.755 440.138 663.978 434.926C684.786 434.846 700.264 419.966 717.452 410.536C710.409 421.478 702.054 432.101 690.556 438.547C678.938 445.629 664.972 445.748 651.882 447.18C675.476 454.064 698.831 445.708 721.192 438.586C703.964 461.345 672.572 470.734 645.676 460.907C634.495 455.098 623.912 447.777 611.777 444.117C598.886 441.053 585.597 440.536 572.507 439.223C574.258 437.751 577.759 434.846 579.509 433.374C588.024 433.454 596.459 434.448 604.894 435.443C589.138 420.722 580.305 400.987 569.722 382.645C583.687 371.744 599.204 363.19 614.443 354.237Z"></path>
    <path fill="#32283C" d="M359.805 331.957C391.356 340.67 415.905 363.826 445.466 376.876C442.96 368.282 440.055 359.808 437.35 351.253C447.615 359.609 457.363 371.306 452.111 385.47C455.612 392.075 459.273 398.6 462.973 405.125C465.32 398.481 467.509 391.717 471.408 385.789C473.755 404.29 460.426 419.648 459.153 437.83C461.541 439.661 463.928 441.531 466.315 443.401C489.949 430.868 517.64 436.279 543.065 438.308C544.815 439.462 548.356 441.769 550.107 442.883C551.619 451.796 553.29 461.981 547.202 469.66C539.086 482.71 523.211 486.172 510.121 492.18C509.763 494.09 509.046 497.909 508.688 499.819C507.296 497.869 504.511 493.97 503.078 492.021C501.368 494.487 499.617 496.994 497.906 499.501C497.269 497.67 495.956 494.05 495.32 492.259C479.007 483.148 447.615 470.416 461.819 446.663C460.387 445.191 458.915 443.679 457.482 442.247C435.042 445.35 410.533 440.297 390.003 451.875C378.664 457.406 366.847 461.703 355.11 466.199C328.174 470.416 300.402 456.849 287.153 433.096C298.731 437.472 309.434 443.878 320.972 448.374C333.107 452.83 346.078 449.488 358.134 446.663C345.839 445.549 332.55 446.544 321.45 440.178C308.718 432.976 299.686 420.841 293.201 407.99C306.768 418.255 318.784 433.772 337.245 434.369C358.89 435.483 382.245 434.807 401.342 423.348C415.467 414.873 423.981 400.271 432.496 386.704C409.181 367.328 376.993 357.978 359.805 331.957ZM434.883 401.306C428.995 416.902 416.462 428.361 404.764 439.661C420.48 436.796 436.395 436 452.31 434.807C456.488 418.215 455.015 400.112 444.352 386.147C438.504 389.091 437.708 396.094 434.883 401.306ZM484.259 449.528C497.707 453.268 512.548 454.859 525.717 449.409C511.911 448.493 498.065 449.05 484.259 449.528Z"></path>
    <path fill="#F59C51" d="M434.883 401.306C437.708 396.094 438.504 389.091 444.352 386.147C455.015 400.112 456.488 418.215 452.31 434.807C436.395 436 420.48 436.796 404.764 439.661C416.462 428.361 428.995 416.902 434.883 401.306Z"></path>
    <path fill="#E48C51" d="M567.176 439.024C568.528 439.064 571.154 439.183 572.507 439.223C585.597 440.536 598.886 441.053 611.777 444.117C623.912 447.777 634.496 455.098 645.676 460.907C648.501 466.239 653.355 469.939 657.891 473.758C659.363 480.403 660.556 487.087 661.67 493.771C642.97 480.283 622.241 469.819 604.576 454.859C594.032 445.748 580.305 442.446 567.176 439.024Z"></path>
    <path fill="#ED9057" d="M390.003 451.875C410.533 440.297 435.042 445.35 457.482 442.247C442.482 446.385 424.499 441.809 412.204 453.228C395.852 467.074 376.475 476.583 359.884 490.071C345.64 501.49 331.436 513.307 314.964 521.543C318.704 505.508 320.336 488.241 309.832 474.315C324.991 471.928 341.065 473.241 355.11 466.199C366.847 461.703 378.664 457.406 390.003 451.875Z"></path>
    <path fill="#CDC9D4" d="M774.109 452.154C788.353 464.408 794.201 485.933 788.233 503.718C760.899 576.011 691.948 627.735 616.472 640.228C617.108 633.026 617.705 625.825 618.382 618.623C643.249 613.69 670.105 606.608 687.094 586.316C701.577 568.73 701.736 544.778 700.98 523.174C697.598 520.468 694.216 517.763 690.834 515.137L696.802 517.365C710.569 522.299 724.892 527.829 739.852 525.72C753.658 524.646 763.883 514.063 772 503.837C777.968 492.458 779.679 479.567 775.82 467.273C775.382 463.493 774.547 455.934 774.109 452.154Z"></path>
    <path fill="#EC635D" d="M732.213 459.952C747.093 459.236 761.894 462.061 775.82 467.273C779.679 479.567 777.968 492.458 772 503.837C767.305 497.631 764.003 488.4 755.091 487.644C746.138 485.336 737.743 490.23 729.348 492.538C718.685 496.437 707.187 495.601 696.046 495.562C699.826 477.061 720.953 472.764 732.213 459.952Z"></path>
    <path fill="#F56D67" d="M244.7 470.496C255.522 468.148 266.384 464.368 277.604 465.045C288.705 466.716 299.089 471.252 309.832 474.315C320.336 488.241 318.704 505.508 314.964 521.543C296.145 529.142 269.647 536.781 253.931 519.315C241.477 506.981 242.631 488.479 243.944 472.445L244.7 470.496Z"></path>
    <path fill="#F66F6B" d="M729.348 492.538C737.743 490.23 746.138 485.336 755.091 487.644C764.003 488.4 767.305 497.631 772 503.837C763.884 514.063 753.658 524.646 739.852 525.72C724.892 527.829 710.569 522.299 696.802 517.365C696.564 510.084 696.166 502.803 696.046 495.562C707.187 495.601 718.685 496.437 729.348 492.538Z"></path>
    <path fill="#D7D8E8" d="M296.901 573.425C307.763 580.348 317.869 588.425 328.81 595.189C347.67 606.528 369.712 610.149 390.998 614.207C391.117 618.146 391.435 625.984 391.555 629.923C360.68 624.631 330.203 615.082 303.386 598.611L303.187 597.855C301.039 589.738 298.93 581.582 296.901 573.425Z"></path>
    <path fill="#FDFEFD" d="M272.79 590.892C274.222 592.762 275.575 594.711 276.888 596.741C274.541 629.286 267.737 661.395 265.588 693.981C263.917 706.911 266.026 720.757 260.177 732.813C257.034 710.811 259.819 688.45 260.655 666.328C262.803 640.944 264.435 615.122 272.79 590.892Z"></path>
    <path fill="#EE9B51" d="M276.888 596.741C286.238 602.589 295.27 608.995 304.62 614.923V615.401C304.421 621.409 304.222 627.417 304.063 633.424C301.556 635.613 299.089 637.801 296.583 639.989C298.572 656.461 295.787 672.774 292.723 688.888C287.074 722.389 301.516 754.855 310.468 786.486C293.4 792.732 276.45 800.73 258.029 801.486C245.536 801.764 233.082 799.974 220.748 798.303C193.932 782.626 177.738 752.508 179.807 721.434C181.001 719.126 183.468 714.511 184.661 712.203C202.605 728.755 223.772 746.46 250.231 741.845C255.124 740.333 269.846 739.537 260.177 732.813C266.026 720.757 263.917 706.911 265.588 693.981C267.737 661.395 274.541 629.287 276.888 596.741Z"></path>
    <path fill="#D7455C" d="M597.215 600.759C599.761 599.048 604.814 595.706 607.361 593.995C605.133 620.215 609.151 648.822 597.294 673.053C557.706 646.753 507.375 632.231 460.705 646.992C441.289 651.925 426.329 666.209 407.748 672.933C406.157 650.016 406.077 627.058 407.31 604.141C440.573 611.661 474.591 613.093 508.569 611.9C536.699 610.547 566.778 617.311 593.196 604.738L597.215 600.759Z"></path>
    <path fill="#DC8855" d="M705.595 624.99C716.139 616.396 729.428 609.274 740.369 600.322C756.364 647.27 766.39 696.447 768.061 746.102C767.942 756.447 768.897 767.308 765.435 777.255C756.404 797.189 751.39 818.674 741.284 838.13C742.677 827.148 741.205 816.207 739.056 805.464C735.316 788.038 741.523 770.81 743.672 753.622C749.481 713.516 752.027 671.74 741.006 632.231C739.653 626.183 736.231 621.051 732.014 616.634C734.163 646.117 738.539 675.559 736.072 705.201C734.401 707.23 731.019 711.208 729.308 713.198C724.693 693.662 723.659 673.61 721.271 653.756C718.765 678.105 722.664 702.853 717.054 726.885C715.94 692.827 720.754 656.7 705.595 624.99Z"></path>
    <path fill="#EDA058" d="M304.063 633.424C304.222 627.416 304.421 621.409 304.62 615.401C331.436 629.923 361.476 636.568 391.714 639.034C393.027 656.103 394.937 674.286 406.554 687.853C384.711 720.399 395.653 760.863 394.181 797.308C393.862 818.594 368.12 831.047 350.017 821.658C337.205 818.833 335.455 804.43 331.038 794.284C318.466 763.131 307.086 731.42 298.413 698.954C297.896 699.551 296.821 700.784 296.304 701.421L295.071 702.813C294.474 699.352 293.28 692.389 292.723 688.888C295.787 672.774 298.572 656.461 296.583 639.989C299.089 637.801 301.556 635.613 304.063 633.424Z"></path>
    <path fill="#F39F56" d="M615.238 649.697C647.068 649.817 677.665 639.591 705.595 624.99C720.754 656.7 715.94 692.827 717.054 726.885C709.932 758.476 698.991 789.55 699.349 822.374C694.256 824.204 689.362 827.546 683.752 826.91C671.697 824.005 656.896 823.488 648.461 813.143C637.957 795.398 634.495 774.231 635.013 753.821C635.251 739.02 635.848 723.702 630.079 709.736C625.344 697.561 618.262 686.421 614.284 673.968C613.727 665.851 614.761 657.774 615.238 649.697Z"></path>
    <path fill="#D38965" d="M721.271 653.756C723.659 673.609 724.693 693.662 729.308 713.198C731.019 711.208 734.401 707.23 736.072 705.2C733.446 732.136 728.831 758.794 724.096 785.372C720.476 801.804 724.812 818.316 726.722 834.628C718.367 828.859 710.29 821.419 699.349 822.374C698.991 789.549 709.932 758.476 717.054 726.884C722.664 702.853 718.765 678.105 721.271 653.756Z"></path>
    <path fill="#CDC5D5" d="M542.706 660.758C559.099 664.458 573.223 673.769 588.501 680.135C595.345 683.477 602.666 680.93 609.31 678.503C624.39 717.972 620.212 761.42 610.782 801.724C605.331 822.334 603.939 843.66 601.154 864.747C549.987 886.073 491.46 885.596 439.459 867.493C425.414 864.548 427.443 846.087 422.668 835.663C431.183 840.477 439.777 845.132 448.331 849.907C473.158 864.946 504.153 862.638 531.208 855.875C550.982 850.822 570.279 839.443 579.43 820.504C598.17 784.059 603.422 737.07 581.777 700.665C572.905 683.676 555.399 674.405 542.706 660.758Z"></path>
    <path fill="#FCFCFC" d="M630.079 709.736C635.848 723.702 635.251 739.02 635.013 753.821C634.496 774.231 637.957 795.398 648.461 813.143C656.896 823.488 671.697 824.005 683.752 826.91C697.757 829.456 709.494 838.169 721.55 845.212C715.661 853.368 709.256 861.127 701.815 867.891C701.617 877.201 702.611 886.551 703.487 895.861C695.45 895.742 687.452 895.702 679.415 895.622C678.898 884.323 678.858 871.233 668.951 863.673C669.15 874.097 669.946 884.522 670.145 894.986C659.641 895.901 649.058 895.582 638.594 894.787C637.559 887.585 638.872 879.429 634.376 873.222C633.938 880.981 634.376 888.779 634.694 896.537C627.692 894.23 614.403 895.423 614.124 885.079C612.772 856.909 616.512 828.501 623.713 801.287C630.397 771.287 631.193 740.293 630.079 709.736Z"></path>
    <path fill="#DCBAAB" d="M211.358 719.047C222.459 719.922 233.56 720.161 244.66 720.121C244.581 723.184 244.422 729.351 244.342 732.455C232.605 730.266 220.032 728.078 211.358 719.047Z"></path>
    <path fill="#E19F7D" d="M258.029 801.486C276.45 800.73 293.4 792.732 310.468 786.486C314.169 797.109 301.238 800.61 293.599 802.958C271.198 807.493 245.416 812.586 224.369 800.809L220.748 798.303C233.082 799.974 245.536 801.764 258.029 801.486Z"></path>
    <path fill="#F7F6F4" d="M280.509 819.748C293.758 817.56 306.529 813.223 317.55 805.504C318.386 810.318 319.301 815.172 320.216 819.987C310.468 825.358 301.476 831.923 293.042 839.164C288.824 832.719 284.686 826.233 280.509 819.748Z"></path>
    <path fill="#B2C598" d="M772.796 817.759C792.769 824.721 816.363 828.66 830.169 846.326C837.729 857.347 829.413 871.113 819.069 876.803C797.464 889.694 772.398 897.134 747.253 898.367C750.953 886.272 749.719 873.5 747.77 861.166C757.04 847.281 766.908 833.514 772.796 817.759Z"></path>
    <path fill="#B1C497" d="M219.316 854.562C231.252 837.931 253.254 835.066 271.835 831.326C275.217 839.522 282.021 845.132 289.302 849.787C281.304 866.339 280.549 884.919 285.761 902.426C263.082 899.402 239.607 892.559 222.539 876.604C216.252 871.153 213.626 861.405 219.316 854.562Z"></path>
    <path fill="#D4C7E1" d="M412.801 841.034C417.894 855.437 421.435 871.113 418.491 886.352C415.905 892.002 408.942 892.837 404.287 895.861C407.629 881.697 412.165 867.692 413.438 853.129C413.279 850.106 412.96 844.058 412.801 841.034Z"></path>
    <path fill="#D3CDD8" d="M721.55 845.212C731.736 856.869 738.539 873.302 735.754 888.779C729.229 895.025 719.481 894.389 711.205 895.98C708.579 886.67 710.33 874.416 701.816 867.89C709.256 861.127 715.662 853.368 721.55 845.212Z"></path>
    <path fill="#E7E1EE" d="M387.735 872.068C399.91 871.511 410.295 865.543 413.438 853.129C412.165 867.692 407.629 881.697 404.287 895.861C398.199 896.06 392.112 896.219 386.064 896.418C386.382 888.262 386.9 880.145 387.735 872.068Z"></path>
    <path fill="#AEC595" d="M422.111 904.813C427.841 897.572 430.148 888.58 432.377 879.827C485.492 899.243 544.736 900.039 598.687 883.368C602.109 894.389 608.395 904.853 620.053 908.553C592.281 903.659 564.351 911.099 536.42 909.786C498.304 908.871 460.068 908.394 422.111 904.813Z"></path>
</svg>
